<svg width="96" height="96" viewBox="0 0 96 96" fill="none" xmlns="http://www.w3.org/2000/svg">
<path d="M44.48 5.2628C44.48 4.41394 45.1591 3.73486 46.008 3.73486C46.8568 3.73486 47.5359 4.41395 47.5359 5.14962L46.008 27.7291L44.48 5.2628Z" fill="white"/>
<path d="M47.5359 94.2793C47.5359 95.1282 46.8568 95.8073 46.008 95.8073C45.1591 95.8073 44.48 95.1282 44.48 94.3925L46.008 71.813L47.5359 94.2793Z" fill="white"/>
<path d="M1.41487 48.2715L23.9944 49.7994L1.47147 51.3274C0.679203 51.3274 0.000116581 50.6483 0.000116581 49.7994C0.000116581 48.9506 0.622609 48.2715 1.41487 48.2715Z" fill="white"/>
<path d="M90.6009 51.2707L68.078 49.7428L90.5443 48.2148C91.3932 48.2148 92.0723 48.8939 92.0723 49.7428C92.0723 50.5916 91.3932 51.2707 90.6009 51.2707Z" fill="white"/>
<path d="M63.664 32.1431L74.8689 19.2971C75.0953 19.0707 75.3782 18.9575 75.6612 18.9575C75.9441 18.9575 76.2837 19.0707 76.4534 19.2971C76.6798 19.5234 76.793 19.8064 76.793 20.0893C76.793 20.3723 76.6798 20.6552 76.51 20.825L63.664 32.1431Z" fill="white"/>
<path d="M15.5624 19.75C15.5624 19.467 15.6756 19.1841 15.9019 18.9577C16.1283 18.7313 16.4112 18.6182 16.6942 18.6182C16.9771 18.6182 17.3167 18.7313 17.4298 18.9011L28.5781 31.9169L15.8453 20.5422C15.6755 20.3159 15.5624 20.0329 15.5624 19.75Z" fill="white"/>
<path d="M27.9556 66.9463L16.4112 79.5093C16.1848 79.7357 15.9018 79.8489 15.6189 79.8489C15.2794 79.8489 14.9964 79.7357 14.77 79.5093C14.3173 79.0566 14.3173 78.3209 14.7134 77.9248L27.9556 66.9463Z" fill="white"/>
<path d="M75.4348 81.2636C75.2084 81.4899 74.9255 81.5465 74.6425 81.5465C74.303 81.5465 74.02 81.4333 73.8502 81.2636L63.0415 67.9648L75.4914 79.6224C75.8875 80.1318 75.8875 80.8108 75.4348 81.2636Z" fill="white"/>
<path d="M55.2886 27.6726C55.4017 27.4462 55.5715 27.333 55.7979 27.333C55.8545 27.333 55.9677 27.333 56.0242 27.3896C56.3072 27.5028 56.4204 27.8423 56.3638 28.0687L52.6288 35.3688L55.2886 27.6726Z" fill="white"/>
<path d="M58.2314 0.39613C58.288 0.169769 58.5144 0 58.7407 0C58.7973 0 58.8539 0 58.9105 0C59.0237 0.0565903 59.1935 0.11318 59.2501 0.282951C59.3066 0.396132 59.3066 0.565902 59.3066 0.622492L56.3074 8.31877L58.2314 0.39613Z" fill="white"/>
<path d="M21.5044 85.9604L17.8826 93.3172C17.7694 93.487 17.5997 93.6001 17.4299 93.6001C17.3167 93.6001 17.2601 93.6001 17.1469 93.5436C17.0338 93.487 16.9206 93.3738 16.864 93.204C16.8074 93.0342 16.864 92.9211 16.864 92.8079L21.5044 85.9604Z" fill="white"/>
<path d="M1.41462 23.7678C1.5278 23.598 1.69757 23.4849 1.92393 23.4849C2.03711 23.4849 2.0937 23.4849 2.15029 23.5415L9.16748 27.8423L1.69757 24.5035C1.35803 24.3903 1.30144 24.0508 1.41462 23.7678Z" fill="white"/>
<path d="M95.2981 79.5091C95.1849 79.6788 95.0151 79.792 94.7888 79.792C94.6756 79.792 94.619 79.792 94.5624 79.7354L87.5452 75.4346L95.0151 78.7168C95.3547 78.8866 95.4113 79.2261 95.2981 79.5091Z" fill="white"/>
<path d="M35.1991 27.7856C35.2557 27.729 35.3689 27.729 35.4254 27.729C35.6518 27.729 35.8216 27.8422 35.8782 27.9554L39.1604 35.5385L34.9727 28.5213C34.9161 28.4081 34.9161 28.2383 34.9161 28.1251C34.9727 27.9554 35.0293 27.8422 35.1991 27.7856Z" fill="white"/>
<path d="M22.8059 42.4993C22.7493 42.3861 22.7493 42.2163 22.7493 42.1032C22.8059 41.8768 23.0323 41.707 23.2587 41.707C23.3152 41.707 23.3718 41.707 23.3718 41.707L31.0681 44.7063L23.0889 42.7822C22.9757 42.7257 22.8625 42.6691 22.8059 42.4993Z" fill="white"/>
<path d="M24.7299 60.6647C24.6733 60.7213 24.5601 60.7213 24.5035 60.7213C24.2772 60.7213 24.1074 60.6081 23.9942 60.4384C23.881 60.1554 23.9942 59.8159 24.164 59.7027L31.7471 56.4771L24.7299 60.6647Z" fill="white"/>
<path d="M40.2922 64.3999L38.0286 72.266C37.972 72.4923 37.7457 72.6055 37.5193 72.6055C37.4627 72.6055 37.4061 72.6055 37.3495 72.5489C37.0666 72.4357 36.8968 72.1528 37.01 71.8698L40.2922 64.3999Z" fill="white"/>
<path d="M55.232 72.3791C55.1754 72.4357 55.1188 72.4357 55.0056 72.4357C54.7793 72.4357 54.6095 72.3225 54.4963 72.1528L51.78 64.3999L55.4583 71.7001C55.6847 71.9264 55.5149 72.266 55.232 72.3791Z" fill="white"/>
<path d="M68.5308 58.9105C68.5874 59.0237 68.5874 59.1935 68.5308 59.3067C68.4742 59.533 68.2478 59.6462 68.0215 59.6462C67.9649 59.6462 67.9083 59.6462 67.8517 59.6462L60.4384 56.0244L68.1913 58.6276C68.361 58.6842 68.4742 58.7407 68.5308 58.9105Z" fill="white"/>
<path d="M67.8518 39.3301C68.0782 39.3301 68.2479 39.4433 68.3611 39.6696C68.4177 39.7828 68.4177 39.9526 68.3611 40.0658C68.3045 40.1789 68.1914 40.2921 68.1348 40.3487L60.4385 43.348L67.5689 39.3867C67.682 39.3867 67.7386 39.3301 67.8518 39.3301Z" fill="white"/>
<path d="M89.1296 64.9659C89.1296 65.2488 88.9033 65.4752 88.6203 65.4752C88.3374 65.4752 88.111 65.2488 88.111 64.9659C88.111 64.6829 88.3374 64.4565 88.6203 64.4565C88.9033 64.4565 89.1296 64.6829 89.1296 64.9659Z" fill="white"/>
<path d="M78.8868 37.1233C77.9248 37.1233 77.1325 36.3311 77.1325 35.369C77.1325 34.407 77.9248 33.6147 78.8868 33.6147C79.8488 33.6147 80.6411 34.407 80.6411 35.369C80.5845 36.3311 79.7923 37.1233 78.8868 37.1233Z" fill="white"/>
<path d="M64.8525 16.5811C64.7393 16.5811 64.6261 16.468 64.6261 16.3548C64.6261 16.2416 64.7393 16.1284 64.8525 16.1284C64.9657 16.1284 65.0789 16.2416 65.0789 16.3548C65.0789 16.468 64.9657 16.5811 64.8525 16.5811Z" fill="white"/>
<path d="M32.4829 19.5239C31.9736 19.5239 31.6341 19.1277 31.6341 18.675C31.6341 18.1657 32.0302 17.8262 32.4829 17.8262C32.9922 17.8262 33.3318 18.2223 33.3318 18.675C33.3318 19.1277 32.9357 19.5239 32.4829 19.5239Z" fill="white"/>
<path d="M9.7901 40.0092C9.62033 40.0092 9.45056 39.8394 9.45056 39.6696C9.45056 39.4999 9.62033 39.3301 9.7901 39.3301C9.95987 39.3301 10.1296 39.4999 10.1296 39.6696C10.1296 39.896 9.95987 40.0092 9.7901 40.0092Z" fill="white"/>
<path d="M15.6756 66.8329C15.6756 66.7197 15.7322 66.6631 15.8454 66.6631C15.9585 66.6631 16.0151 66.7197 16.0151 66.8329C16.0151 66.946 15.9585 67.0026 15.8454 67.0026C15.7322 67.0026 15.6756 66.8894 15.6756 66.8329Z" fill="white"/>
<path d="M30.7852 85.2817C32.2 85.2817 33.3318 86.4135 33.3318 87.8283C33.3318 89.2431 32.2 90.3749 30.7852 90.3749C29.3705 90.3749 28.2387 89.2431 28.2387 87.8283C28.2387 86.4135 29.3705 85.2817 30.7852 85.2817Z" fill="white"/>
<path d="M57.609 84.376C57.6656 84.376 57.7788 84.4326 57.7788 84.5457C57.7788 84.6023 57.7222 84.7155 57.609 84.7155C57.4959 84.7155 57.4393 84.6589 57.4393 84.5457C57.4393 84.4326 57.4959 84.376 57.609 84.376Z" fill="white"/>
<path d="M6.45138 60.0986C6.90411 60.0986 7.24365 60.4382 7.24365 60.8909C7.24365 61.3436 6.90411 61.6832 6.45138 61.6832C5.99866 61.6832 5.65912 61.3436 5.65912 60.8909C5.65912 60.4382 5.99866 60.0986 6.45138 60.0986Z" fill="white"/>
</svg>
