<svg width="131" height="131" viewBox="0 0 131 131" fill="none" xmlns="http://www.w3.org/2000/svg">
<path d="M69.4745 7.29061C69.4745 6.13551 68.5505 5.21143 67.3954 5.21143C66.2402 5.21143 65.3162 6.13551 65.3162 7.1366L67.3954 37.8624L69.4745 7.29061Z" fill="#FBEA14"/>
<path d="M65.3162 128.423C65.3162 129.578 66.2402 130.502 67.3954 130.502C68.5505 130.502 69.4745 129.578 69.4745 128.577L67.3954 97.8511L65.3162 128.423Z" fill="#FBEA14"/>
<path d="M128.077 65.8159L97.3511 67.8951L128 69.9743C129.078 69.9743 130.002 69.0502 130.002 67.8951C130.002 66.74 129.155 65.8159 128.077 65.8159Z" fill="#FBEA14"/>
<path d="M6.71385 69.8971L37.3627 67.818L6.79086 65.7388C5.63575 65.7388 4.71167 66.6629 4.71167 67.818C4.71167 68.9731 5.63575 69.8971 6.71385 69.8971Z" fill="#FBEA14"/>
<path d="M43.3693 43.8689L28.1219 26.3883C27.8139 26.0803 27.4288 25.9263 27.0438 25.9263C26.6588 25.9263 26.1967 26.0803 25.9657 26.3883C25.6577 26.6963 25.5037 27.0814 25.5037 27.4664C25.5037 27.8514 25.6577 28.2365 25.8887 28.4675L43.3693 43.8689Z" fill="#FBEA14"/>
<path d="M108.825 27.0045C108.825 26.6195 108.671 26.2344 108.363 25.9264C108.055 25.6184 107.67 25.4644 107.285 25.4644C106.9 25.4644 106.438 25.6184 106.284 25.8494L91.1135 43.561L108.44 28.0826C108.671 27.7746 108.825 27.3895 108.825 27.0045Z" fill="#FBEA14"/>
<path d="M91.9607 91.2285L107.67 108.324C107.978 108.632 108.363 108.786 108.748 108.786C109.21 108.786 109.595 108.632 109.903 108.324C110.519 107.708 110.519 106.707 109.98 106.168L91.9607 91.2285Z" fill="#FBEA14"/>
<path d="M27.3518 110.711C27.6598 111.019 28.0449 111.096 28.4299 111.096C28.8919 111.096 29.277 110.942 29.508 110.711L44.2163 92.6143L27.2748 108.478C26.7357 109.171 26.7357 110.095 27.3518 110.711Z" fill="#FBEA14"/>
<path d="M54.7663 37.7853C54.6123 37.4773 54.3813 37.3232 54.0733 37.3232C53.9963 37.3232 53.8422 37.3232 53.7652 37.4003C53.3802 37.5543 53.2262 38.0163 53.3032 38.3243L58.3857 48.2582L54.7663 37.7853Z" fill="#FBEA14"/>
<path d="M50.7617 0.667953C50.6847 0.359925 50.3767 0.128906 50.0687 0.128906C49.9916 0.128906 49.9146 0.128906 49.8376 0.128906C49.6836 0.205913 49.4526 0.28292 49.3756 0.513942C49.2986 0.667956 49.2986 0.898976 49.2986 0.975983L53.38 11.4489L50.7617 0.667953Z" fill="#FBEA14"/>
<path d="M100.739 117.103L105.668 127.113C105.822 127.344 106.053 127.498 106.284 127.498C106.438 127.498 106.515 127.499 106.669 127.422C106.823 127.344 106.977 127.19 107.054 126.959C107.131 126.728 107.054 126.574 107.054 126.42L100.739 117.103Z" fill="#FBEA14"/>
<path d="M128.077 32.4719C127.923 32.2409 127.692 32.0869 127.384 32.0869C127.23 32.0869 127.153 32.0869 127.076 32.1639L117.527 38.0165L127.692 33.473C128.154 33.319 128.231 32.857 128.077 32.4719Z" fill="#FBEA14"/>
<path d="M0.322085 108.324C0.476099 108.555 0.70712 108.709 1.01515 108.709C1.16916 108.709 1.24617 108.709 1.32318 108.632L10.8721 102.779L0.70712 107.246C0.245078 107.477 0.168071 107.939 0.322085 108.324Z" fill="#FBEA14"/>
<path d="M82.1039 37.9393C82.0269 37.8623 81.8729 37.8623 81.7958 37.8623C81.4878 37.8623 81.2568 38.0163 81.1798 38.1703L76.7134 48.4893L82.4119 38.9404C82.4889 38.7864 82.4889 38.5554 82.4889 38.4014C82.4119 38.1703 82.3349 38.0163 82.1039 37.9393Z" fill="#FBEA14"/>
<path d="M98.9681 57.9614C99.0451 57.8074 99.0451 57.5764 99.0451 57.4223C98.9681 57.1143 98.6601 56.8833 98.3521 56.8833C98.2751 56.8833 98.1981 56.8833 98.1981 56.8833L87.7251 60.9647L98.5831 58.3464C98.7371 58.2694 98.8911 58.1924 98.9681 57.9614Z" fill="#FBEA14"/>
<path d="M96.3501 82.6805C96.4272 82.7575 96.5812 82.7575 96.6582 82.7575C96.9662 82.7575 97.1972 82.6034 97.3512 82.3724C97.5052 81.9874 97.3512 81.5253 97.1202 81.3713L86.8013 76.9819L96.3501 82.6805Z" fill="#FBEA14"/>
<path d="M75.1731 87.7632L78.2534 98.4672C78.3304 98.7752 78.6384 98.9292 78.9464 98.9292C79.0234 98.9292 79.1005 98.9292 79.1775 98.8522C79.5625 98.6982 79.7935 98.3131 79.6395 97.9281L75.1731 87.7632Z" fill="#FBEA14"/>
<path d="M54.8433 98.6212C54.9204 98.6982 54.9974 98.6982 55.1514 98.6982C55.4594 98.6982 55.6904 98.5442 55.8444 98.3131L59.5408 87.7632L54.5353 97.6971C54.2273 98.0051 54.4583 98.4672 54.8433 98.6212Z" fill="#FBEA14"/>
<path d="M36.7465 80.2931C36.6695 80.4471 36.6695 80.6781 36.7465 80.8321C36.8235 81.1402 37.1315 81.2942 37.4395 81.2942C37.5165 81.2942 37.5936 81.2942 37.6706 81.2942L47.7585 76.3657L37.2085 79.9081C36.9775 79.9851 36.8235 80.0621 36.7465 80.2931Z" fill="#FBEA14"/>
<path d="M37.6705 53.6489C37.3625 53.6489 37.1314 53.8029 36.9774 54.111C36.9004 54.265 36.9004 54.496 36.9774 54.65C37.0544 54.804 37.2085 54.958 37.2855 55.0351L47.7584 59.1164L38.0555 53.7259C37.9015 53.7259 37.8245 53.6489 37.6705 53.6489Z" fill="#FBEA14"/>
<path d="M8.71606 88.5329C8.71606 88.9179 9.02409 89.226 9.40913 89.226C9.79416 89.226 10.1022 88.9179 10.1022 88.5329C10.1022 88.1479 9.79416 87.8398 9.40913 87.8398C9.02409 87.8398 8.71606 88.1479 8.71606 88.5329Z" fill="#FBEA14"/>
<path d="M22.6543 50.6455C23.9634 50.6455 25.0415 49.5674 25.0415 48.2583C25.0415 46.9492 23.9634 45.8711 22.6543 45.8711C21.3452 45.8711 20.2671 46.9492 20.2671 48.2583C20.3441 49.5674 21.4222 50.6455 22.6543 50.6455Z" fill="#FBEA14"/>
<path d="M41.7514 22.6908C41.9051 22.6908 42.0589 22.537 42.0589 22.3832C42.0589 22.2295 41.9051 22.0757 41.7514 22.0757C41.5976 22.0757 41.4438 22.2295 41.4438 22.3832C41.4438 22.537 41.5976 22.6908 41.7514 22.6908Z" fill="#FBEA14"/>
<path d="M85.7999 26.6964C86.4929 26.6964 86.955 26.1574 86.955 25.5413C86.955 24.8483 86.4159 24.3862 85.7999 24.3862C85.1068 24.3862 84.6448 24.9253 84.6448 25.5413C84.6448 26.1574 85.1838 26.6964 85.7999 26.6964Z" fill="#FBEA14"/>
<path d="M116.68 54.573C116.911 54.573 117.142 54.342 117.142 54.111C117.142 53.88 116.911 53.6489 116.68 53.6489C116.449 53.6489 116.218 53.88 116.218 54.111C116.218 54.419 116.449 54.573 116.68 54.573Z" fill="#FBEA14"/>
<path d="M108.67 91.0739C108.67 90.9201 108.593 90.8433 108.44 90.8433C108.286 90.8433 108.209 90.9201 108.209 91.0739C108.209 91.2277 108.286 91.3046 108.44 91.3046C108.593 91.3046 108.67 91.1508 108.67 91.0739Z" fill="#FBEA14"/>
<path d="M88.1101 116.179C86.1849 116.179 84.6448 117.719 84.6448 119.644C84.6448 121.569 86.1849 123.109 88.1101 123.109C90.0353 123.109 91.5754 121.569 91.5754 119.644C91.5754 117.719 90.0353 116.179 88.1101 116.179Z" fill="#FBEA14"/>
<path d="M51.6083 114.946C51.5314 114.946 51.3777 115.023 51.3777 115.177C51.3777 115.254 51.4546 115.408 51.6083 115.408C51.7621 115.408 51.839 115.331 51.839 115.177C51.839 115.023 51.7621 114.946 51.6083 114.946Z" fill="#FBEA14"/>
<path d="M121.223 81.9106C120.607 81.9106 120.145 82.3727 120.145 82.9887C120.145 83.6048 120.607 84.0668 121.223 84.0668C121.839 84.0668 122.301 83.6048 122.301 82.9887C122.301 82.3727 121.839 81.9106 121.223 81.9106Z" fill="#FBEA14"/>
</svg>
